<svg xmlns="http://www.w3.org/2000/svg" version="1.1" xmlns:xlink="http://www.w3.org/1999/xlink" xmlns:svgjs="http://svgjs.dev/svgjs" width="165" height="149"><svg version="1.1" id="SvgjsSvg1045" x="0px" y="0px" viewBox="0 0 165 149" xml:space="preserve" sodipodi:docname="cdnlogo.com_evil-martians_small.svg" width="165" height="149" inkscape:version="1.2.2 (b0a8486541, 2022-12-01)" xmlns:inkscape="http://www.inkscape.org/namespaces/inkscape" xmlns:sodipodi="http://sodipodi.sourceforge.net/DTD/sodipodi-0.dtd" xmlns="http://www.w3.org/2000/svg" xmlns:svg="http://www.w3.org/2000/svg"><defs id="SvgjsDefs1044">
	
	
	
	
	
	
	
	
	
	
	
	
	
	
	
</defs><sodipodi:namedview id="SvgjsSodipodi:namedview1043" pagecolor="#ffffff" bordercolor="#666666" borderopacity="1.0" inkscape:showpageshadow="2" inkscape:pageopacity="0.0" inkscape:pagecheckerboard="0" inkscape:deskcolor="#d1d1d1" showgrid="false" inkscape:zoom="2.46356" inkscape:cx="275.21148" inkscape:cy="93.360826" inkscape:window-width="1920" inkscape:window-height="991" inkscape:window-x="0" inkscape:window-y="0" inkscape:window-maximized="1" inkscape:current-layer="Layer_1"></sodipodi:namedview>
<style type="text/css" id="SvgjsStyle1042">
	.st0{fill:#E2CBB5;}
	.st1{fill:#BF6C35;}
	.st2{fill:#FFFFFF;}
	.st3{fill:#9FA628;}
	.st4{fill:#663F4C;}
	.st5{fill:#583345;}
</style>
<g id="SvgjsG1041"><path id="SvgjsPath1040" class="st0" d="m 162.39045,106.50081 -6.70736,-6.70736 v -3.35368 c 0,-7.54577 -5.86893,-13.69418 -13.27497,-14.25312 v -4.61131 h 3.35367 c 7.96499,0 14.39287,-6.42788 14.39287,-14.39286 V 48.78961 c 0,-1.25763 -0.97815,-2.23578 -2.23578,-2.23578 -1.25763,0 -2.23579,0.97815 -2.23579,2.23578 0,-1.25763 -0.97815,-2.23578 -2.23578,-2.23578 -1.25763,0 -2.23579,0.97815 -2.23579,2.23578 0,-1.25763 -0.97815,-2.23578 -2.23578,-2.23578 -1.25763,0 -2.23579,0.97815 -2.23579,2.23578 v 12.15708 c 0,1.95632 -1.39737,3.35368 -3.35368,3.35368 h -1.11789 V 48.78961 H 114.4608 c -3.0742,0 -5.58946,-2.37552 -5.58946,-5.58946 0,-3.07421 2.37552,-5.58946 5.58946,-5.58946 h 27.80758 V 35.3749 c 2.37552,0 4.47157,-1.95631 4.47157,-4.47157 0,-2.37552 -1.95631,-4.47157 -4.47157,-4.47157 v -7.82525 c 0,-7.825249 -4.33183,-12.1570794 -12.15708,-12.1570794 h -13.27498 c -7.82524,0 -12.15708,4.4715704 -12.15708,12.1570794 v 7.82525 c -2.37552,0 -4.47157,1.95631 -4.47157,4.47157 0,2.37552 1.95631,4.47157 4.47157,4.47157 v 28.92547 h -1.11789 c -1.95631,0 -3.35368,-1.39736 -3.35368,-3.35368 V 48.78961 c 0,-1.25763 -0.978155,-2.23578 -2.235782,-2.23578 -1.25763,0 -2.23579,0.97815 -2.23579,2.23578 0,-1.25763 -0.97816,-2.23578 -2.23578,-2.23578 -1.25763,0 -2.23579,0.97815 -2.23579,2.23578 0,-1.25763 -0.97816,-2.23578 -2.23578,-2.23578 -1.25763,0 -2.23579,0.97815 -2.23579,2.23578 v 14.39287 c 0,7.96498 6.42788,14.39286 14.392872,14.39286 h 3.35368 v 9.92129 c 0,1.95632 -1.39737,3.35368 -3.35368,3.35368 h -7.825252 v 19.98233 l 6.707352,-6.70735 h 3.35368 c 6.00868,0 11.03919,-3.63315 13.27498,-8.94314 h 22.21811 c 1.95631,0 3.35368,1.39736 3.35368,3.35367 v 7.82525 h 20.12207 z" style="stroke-width:1.39737"></path><path id="SvgjsPath1039" class="st1" d="m 130.25103,6.5891706 h -13.41471 c -7.82524,0 -12.15708,4.4715704 -12.15708,12.1570794 v 1.11789 l 2.23579,-2.23578 3.35367,3.35367 3.35368,-3.35367 3.35368,3.35367 3.35368,-3.35367 3.35368,3.35367 3.35367,-3.35367 3.35368,3.35367 3.35368,-3.35367 3.35368,3.35367 3.35367,-3.35367 2.23579,2.23578 V 18.74625 C 142.40812,11.060741 138.07628,6.5891706 130.25103,6.5891706 Z" style="stroke-width:1.39737"></path><circle id="SvgjsCircle1038" class="st2" cx="116.83633" cy="28.807289" r="4.4715705" style="stroke-width:1.39737"></circle><circle id="SvgjsCircle1037" class="st2" cx="130.25104" cy="28.807289" r="4.4715705" style="stroke-width:1.39737"></circle><circle id="SvgjsCircle1036" class="st3" cx="116.83633" cy="28.807289" r="2.2357852" style="stroke-width:1.39737"></circle><circle id="SvgjsCircle1035" class="st3" cx="130.25104" cy="28.807289" r="2.2357852" style="stroke-width:1.39737"></circle><path id="SvgjsPath1034" class="st4" d="m 116.83632,34.25701 c -2.93446,0 -5.44972,-2.37552 -5.44972,-5.44973 0,-3.0742 2.37552,-5.44972 5.44972,-5.44972 2.93447,0 5.44973,2.37552 5.44973,5.44972 0,3.07421 -2.37552,5.44973 -5.44973,5.44973 z m 0,-8.94314 c -1.95631,0 -3.49341,1.5371 -3.49341,3.49341 0,1.95631 1.5371,3.49342 3.49341,3.49342 1.95632,0 3.49342,-1.53711 3.49342,-3.49342 0,-1.95631 -1.5371,-3.49341 -3.49342,-3.49341 z m 13.41471,8.94314 c -2.93446,0 -5.44972,-2.37552 -5.44972,-5.44973 0,-3.0742 2.37552,-5.44972 5.44972,-5.44972 2.93447,0 5.44973,2.37552 5.44973,5.44972 0,3.07421 -2.51526,5.44973 -5.44973,5.44973 z m 0,-8.94314 c -1.95631,0 -3.49341,1.5371 -3.49341,3.49341 0,1.95631 1.5371,3.49342 3.49341,3.49342 1.95632,0 3.49342,-1.53711 3.49342,-3.49342 0,-1.95631 -1.67684,-3.49341 -3.49342,-3.49341 z m 34.79441,82.30483 -8.24446,-8.24446 v -2.93447 c 0,-7.82524 -5.7292,-14.25312 -13.27497,-15.37102 v -2.37552 h 2.23578 c 8.52394,0 15.51076,-6.98683 15.51076,-15.51075 V 48.78961 c 0,-1.95631 -1.39736,-3.35368 -3.35367,-3.35368 -0.83842,0 -1.67684,0.27948 -2.23579,0.83842 -0.55894,-0.55894 -1.39736,-0.83842 -2.23578,-0.83842 -0.83842,0 -1.67684,0.27948 -2.23579,0.83842 -0.55895,-0.55894 -1.39736,-0.83842 -2.23578,-0.83842 -1.95632,0 -3.35368,1.39737 -3.35368,3.35368 v 12.15708 c 0,1.25763 -0.97816,2.23579 -2.23579,2.23579 V 47.67172 h -5.58946 v -0.55895 c 0,-0.83842 -0.83842,-1.67684 -1.67684,-1.67684 -0.83842,0 -1.67684,0.83842 -1.67684,1.67684 v 0.55895 h -3.35368 v -0.55895 c 0,-0.83842 -0.83842,-1.67684 -1.67683,-1.67684 -0.83842,0 -1.67684,0.83842 -1.67684,1.67684 v 0.55895 h -3.35368 v -0.55895 c 0,-0.83842 -0.83842,-1.67684 -1.67684,-1.67684 -0.83842,0 -1.67684,0.83842 -1.67684,1.67684 v 0.55895 h -3.35368 v -0.55895 c 0,-0.83842 -0.83842,-1.67684 -1.67684,-1.67684 -0.83842,0 -1.67683,0.83842 -1.67683,1.67684 v 0.55895 c -2.37553,0 -4.47158,-1.95631 -4.47158,-4.47157 0,-2.37552 1.95632,-4.47157 4.47158,-4.47157 h 3.35367 v 0.55894 c 0,0.83842 0.83842,1.67684 1.67684,1.67684 0.83842,0 1.67684,-0.83842 1.67684,-1.67684 v -0.55894 h 3.35368 v 0.55894 c 0,0.83842 0.83842,1.67684 1.67684,1.67684 0.83842,0 1.67684,-0.83842 1.67684,-1.67684 v -0.55894 h 3.35367 v 0.55894 c 0,0.83842 0.83842,1.67684 1.67684,1.67684 0.83842,0 1.67684,-0.83842 1.67684,-1.67684 v -0.55894 h 3.35368 v 0.55894 c 0,0.83842 0.83842,1.67684 1.67684,1.67684 0.83842,0 1.67684,-0.83842 1.67684,-1.67684 v -0.55894 h 2.23578 v -2.37552 c 2.51526,-0.55895 4.47157,-2.79473 4.47157,-5.44973 0,-2.65499 -1.95631,-4.89078 -4.47157,-5.44973 v -6.70735 c 0,-8.384199 -4.89078,-13.2749794 -13.27497,-13.2749794 h -13.27498 c -8.38419,0 -13.27497,4.8907804 -13.27497,13.2749794 v 6.70735 c -2.51526,0.55895 -4.471575,2.79474 -4.471575,5.44973 0,2.655 1.956315,4.89078 4.471575,5.44973 v 26.68968 c -1.25763,0 -2.23579,-0.97815 -2.23579,-2.23578 V 48.64988 c 0,-1.95632 -1.397365,-3.35368 -3.353672,-3.35368 -0.83842,0 -1.67684,0.27947 -2.23579,0.83842 -0.55895,-0.55895 -1.39736,-0.83842 -2.23578,-0.83842 -0.83842,0 -1.67684,0.27947 -2.23579,0.83842 -0.55895,-0.55895 -1.39737,-0.83842 -2.23578,-0.83842 -1.95632,0 -3.35368,1.39736 -3.35368,3.35368 v 14.39286 c 0,8.52393 6.98683,15.51076 15.510762,15.51076 h 2.23578 v 8.94313 c 0,1.25763 -0.97815,2.23579 -2.23578,2.23579 h -8.943142 v 23.75522 l 8.244452,-8.24446 h 2.93447 c 6.00868,0 11.4584,-3.49342 13.97366,-8.94314 h 21.51943 c 1.25763,0 2.23579,0.97815 2.23579,2.23578 v 8.94314 h 23.89495 z M 143.52601,65.41826 c 2.37552,0 4.47157,-1.95631 4.47157,-4.47157 V 48.78961 c 0,-0.69868 0.41921,-1.11789 1.11789,-1.11789 0.69869,0 1.1179,0.41921 1.1179,1.11789 0,0.69868 0.4192,1.11789 1.11789,1.11789 0.69868,0 1.11789,-0.41921 1.11789,-1.11789 0,-0.69868 0.41921,-1.11789 1.11789,-1.11789 0.69869,0 1.1179,0.41921 1.1179,1.11789 0,0.69868 0.41921,1.11789 1.11789,1.11789 0.69868,0 1.11789,-0.41921 1.11789,-1.11789 0,-0.69868 0.41921,-1.11789 1.11789,-1.11789 0.69869,0 1.1179,0.41921 1.1179,1.11789 v 14.39287 c 0,7.2663 -6.00868,13.27497 -13.27498,13.27497 h -2.23578 V 65.41826 Z m 0,-37.58913 c 1.39737,0.41921 2.23578,1.67683 2.23578,3.0742 0,1.39737 -0.83841,2.655 -2.23578,3.0742 z m -42.20045,3.21394 c 0,-1.39737 0.83842,-2.655 2.23579,-3.07421 v 6.28815 c -1.39737,-0.55895 -2.23579,-1.81658 -2.23579,-3.21394 z m 37.72888,63.30066 h -22.9168 l -0.27947,0.69868 c -2.09605,5.03052 -6.84709,8.24446 -12.29682,8.24446 h -3.772895 l -5.170247,5.17025 V 92.24768 h 6.707352 c 2.37553,0 4.47157,-1.95631 4.47157,-4.47157 V 76.73692 h -4.47157 c -7.266302,0 -13.274972,-6.00867 -13.274972,-13.27497 V 49.06908 c 0,-0.69868 0.41921,-1.11789 1.11789,-1.11789 0.69868,0 1.11789,0.41921 1.11789,1.11789 0,0.69869 0.41921,1.1179 1.1179,1.1179 0.69868,0 1.11789,-0.41921 1.11789,-1.1179 0,-0.69868 0.41921,-1.11789 1.11789,-1.11789 0.69869,0 1.11789,0.41921 1.11789,1.11789 0,0.69869 0.41921,1.1179 1.1179,1.1179 0.69868,0 1.11789,-0.41921 1.11789,-1.1179 0,-0.69868 0.41921,-1.11789 1.11789,-1.11789 0.698687,0 1.117897,0.41921 1.117897,1.11789 v 12.15709 c 0,2.37552 1.956315,4.47157 4.471575,4.47157 h 2.23578 V 19.02572 c 0,-7.126559 4.05236,-11.0391894 11.03919,-11.0391894 h 13.27497 c 7.12657,0 11.03919,4.0523604 11.03919,11.0391894 v 17.74655 h -26.68968 c -3.63315,0 -6.70736,2.93446 -6.70736,6.70735 0,3.63315 2.93447,6.70736 6.70736,6.70736 h 26.68968 v 33.25729 l 0.97816,0.13974 c 6.84709,0.55895 12.29682,6.28815 12.29682,13.27497 v 3.77289 l 5.17025,5.17026 h -16.0697 v -6.70736 c -0.13974,-2.79473 -2.09605,-4.75104 -4.61131,-4.75104 z" style="stroke-width:1.39737"></path><path id="SvgjsPath1033" class="st3" d="m 22.732578,48.78961 c -3.07421,0 -5.58947,-2.37552 -5.58947,-5.58946 0,-3.07421 2.37552,-5.58946 5.58947,-5.58946 h 27.80757 V 18.74625 c 0,-7.825249 -4.33183,-12.1570794 -12.15708,-12.1570794 h -13.27497 c -7.82525,0 -12.15708,4.4715704 -12.15708,12.1570794 v 68.75038 c 0,1.95632 -1.39737,3.35368 -3.3536799,3.35368 H 1.7720883 v 19.98233 l 6.7073498,-6.70735 h 3.3536799 c 6.00868,0 11.03919,-3.63315 13.27498,-8.94314 h 22.21811 c 1.95631,0 3.35368,1.39736 3.35368,3.35367 v 7.82525 h 19.98233 l -6.70736,-6.70735 v -3.21395 c 0,-7.54577 -5.86893,-13.69418 -13.27497,-14.25312 v -2.37552 h 26.68969 l -5.58947,-4.47157 6.70736,-2.23579 -6.70736,-2.23578 5.58947,-4.47157 h -26.68969 v -4.47157 h 26.68969 l -5.58947,-4.47157 6.70736,-2.23579 -6.70736,-2.23578 5.58947,-4.47157 h -54.637 z" style="stroke-width:1.39737"></path><circle id="SvgjsCircle1032" class="st2" cx="24.968372" cy="28.807289" r="4.4715705" style="stroke-width:1.39737"></circle><circle id="SvgjsCircle1031" class="st2" cx="38.243351" cy="28.807289" r="4.4715705" style="stroke-width:1.39737"></circle><circle id="SvgjsCircle1030" class="st1" cx="24.968372" cy="28.807289" r="2.2357852" style="stroke-width:1.39737"></circle><circle id="SvgjsCircle1029" class="st1" cx="38.243351" cy="28.807289" r="2.2357852" style="stroke-width:1.39737"></circle><path id="SvgjsPath1028" class="st0" d="M 12.671538,83.1648 V 72.12561 l -9.9212897,5.58947 z m 0,-11.03919 V 61.08643 l -9.9212897,5.58946 z m 0,-11.17892 V 49.9075 L 2.7502483,55.49697 Z M 2.7502483,44.31804 12.671538,49.9075 V 38.86831 Z" style="stroke-width:1.39737"></path><path id="SvgjsPath1027" class="st4" d="m 50.400418,47.67172 -2.23579,-4.47157 -2.23578,4.47157 h -2.23579 l -2.23578,-4.47157 -2.23579,4.47157 h -2.23578 l -2.23579,-4.47157 -2.23578,4.47157 h -2.09605 l -2.23579,-4.47157 -2.23578,4.47157 h -2.23579 l -2.23578,-4.47157 -1.67684,3.49341 c -0.97816,-0.83842 -1.67684,-2.09605 -1.67684,-3.49341 0,-2.09605 1.39736,-3.91263 3.49341,-4.33184 l 2.09605,4.33184 2.23579,-4.47157 h 2.23578 l 2.23579,4.47157 2.23578,-4.47157 h 2.23579 l 2.23578,4.47157 2.23579,-4.47157 h 2.23578 l 2.23579,4.47157 2.23578,-4.47157 h 5.58947 V 18.74625 c 0,-3.77289 -0.97816,-6.707359 -2.79474,-8.9431394 l 2.93447,-2.93447 c 0.97816,0.41921 1.95632,0.83842 3.21394,0.83842 0.69869,0 1.1179,-0.41921 1.1179,-1.11789 0,-0.69869 -0.41921,-1.1179 -1.1179,-1.1179 -2.09604,0 -3.35367,-1.25763 -3.35367,-3.3536701 0,-0.6986899 -0.41921,-1.11789994 -1.1179,-1.11789994 -0.69868,0 -1.11789,0.41921004 -1.11789,1.11789994 0,1.25762 0.27947,2.2357801 0.83842,3.0742001 l -2.93447,2.93447 c -2.37552,-1.67684 -5.30999,-2.655 -9.08287,-2.655 h -13.27498 c -3.77289,0 -6.70735,0.97816 -8.94314,2.79474 l -2.93447,-2.93447 c 0.41921,-0.97816 0.83842,-1.9563201 0.83842,-3.2139401 0,-0.6986899 -0.41921,-1.11789994 -1.11789,-1.11789994 -0.69868,0 -1.11789,0.41921004 -1.11789,1.11789994 0,2.0960401 -1.25763,3.3536701 -3.3536799,3.3536701 -0.6986798,0 -1.1178898,0.41921 -1.1178898,1.1179 0,0.69868 0.41921,1.11789 1.1178898,1.11789 1.25763,0 2.2357799,-0.27947 3.0741999,-0.83842 l 2.93447,2.93447 c -1.81657,2.2357804 -2.79473,5.1702494 -2.79473,8.9431394 V 38.0299 L 0.51445833,44.31804 10.435758,49.9075 0.51445833,55.49697 10.435758,61.08643 0.51445833,66.67589 10.435758,72.26535 0.51445833,77.85481 11.693388,84.00322 v 3.77289 c 0,1.25763 -0.97816,2.23578 -2.2357899,2.23578 H 0.51445833 v 23.75522 l 8.24445977,-8.24446 h 2.9344699 c 6.00867,0 11.4584,-3.49341 13.97365,-8.94314 h 21.51944 c 1.25763,0 2.23578,0.97816 2.23578,2.23579 v 8.94314 h 23.75522 l -8.24446,-8.24446 v -3.07421 c 0,-7.82524 -5.7292,-14.25312 -13.27497,-15.37102 v -0.27947 h 28.78573 l -6.42788,-5.17025 7.82525,-2.655 -7.82525,-2.65499 6.42788,-5.17025 h -28.78573 v -2.23578 h 28.78573 l -6.42788,-5.17026 7.82525,-2.65499 -7.82525,-2.655 6.42788,-5.17025 h -30.04336 z m 1.11789,2.23578 h 22.35785 l -4.61131,3.77289 5.44973,1.81658 -5.44973,1.81657 4.61131,3.77289 h -22.35785 z m -39.96466,-9.22261 v 7.2663 L 4.9860283,44.31804 Z m 0,11.03919 v 7.2663 L 4.9860283,55.35723 Z m 0,11.17893 v 7.2663 L 4.9860283,66.53616 Z M 4.9860283,77.57534 11.553648,73.94219 v 7.2663 z M 13.789428,18.74625 c 0,-7.126569 4.05237,-11.0391894 11.03919,-11.0391894 h 13.27498 c 7.12656,0 11.03919,4.0523604 11.03919,11.0391894 v 17.74654 h -26.41021 c -3.63316,0 -6.70736,2.93447 -6.70736,6.70736 0,3.63315 2.93447,6.70735 6.70736,6.70735 h 26.68968 v 17.74655 h 24.59364 l -4.61131,3.77288 5.44973,1.81658 -5.44973,1.81657 4.61131,3.77289 h -24.59364 v 4.47157 l 0.97816,0.13973 c 6.84709,0.41921 12.29682,6.28815 12.29682,13.27498 v 3.77289 l 5.17025,5.17025 h -16.20944 v -6.70736 c 0,-2.37552 -1.95632,-4.47157 -4.47157,-4.47157 h -23.05654 l -0.27947,0.69869 c -1.95631,5.03051 -6.70736,8.24445 -12.15708,8.24445 H 7.9204983 l -5.17025,5.17026 V 92.38741 h 6.7073498 c 2.3755199,0 4.4715699,-1.95631 4.4715699,-4.47157 V 18.74625 Z m 11.17893,15.51076 c 2.93447,0 5.44973,-2.37552 5.44973,-5.44973 0,-3.0742 -2.37552,-5.44972 -5.44973,-5.44972 -2.93447,0 -5.44973,2.37552 -5.44973,5.44972 0,3.07421 2.37553,5.44973 5.44973,5.44973 z m 0,-8.94314 c 1.95631,0 3.49341,1.5371 3.49341,3.49341 0,1.95631 -1.5371,3.49342 -3.49341,3.49342 -1.95631,0 -3.49341,-1.53711 -3.49341,-3.49342 0,-1.95631 1.5371,-3.49341 3.49341,-3.49341 z m 13.27498,8.94314 c 2.93446,0 5.44972,-2.37552 5.44972,-5.44973 0,-3.0742 -2.37552,-5.44972 -5.44972,-5.44972 -2.93447,0 -5.44973,2.37552 -5.44973,5.44972 0,3.07421 2.37552,5.44973 5.44973,5.44973 z m 0,-8.94314 c 1.95631,0 3.49341,1.5371 3.49341,3.49341 0,1.95631 -1.5371,3.49342 -3.49341,3.49342 -1.95632,0 -3.49342,-1.53711 -3.49342,-3.49342 0,-1.95631 1.5371,-3.49341 3.49342,-3.49341 z" style="stroke-width:1.39737"></path><path id="SvgjsPath1026" class="st5" d="m 28.699768,121.69245 h 4.50288 v 26.8062 h -4.50288 z m 16.81543,26.87656 v -3.94002 h -6.68396 v -22.93654 h -4.50287 v 26.8062 h 11.18683 z m -25.75083,0 c 4.2918,0 7.80968,-3.51788 7.80968,-7.80968 v -18.99652 h -4.50288 v 19.55938 c 0,1.82929 -1.47751,3.37716 -3.37716,3.37716 h -1.12572 v -22.93654 h -4.50288 v 26.8062 z m 62.61815,-26.87656 c -4.29181,0 -7.80968,3.51788 -7.80968,7.80968 v 18.99652 h 4.50288 v -9.49826 h 4.50288 v 9.49826 h 4.50288 v -26.8062 z m -3.37716,13.43828 v -6.1211 c 0,-1.82929 1.47751,-3.37716 3.37716,-3.37716 h 1.12572 v 9.49826 z m 23.499402,-5.55824 c 0,-4.29181 -3.517885,-7.80968 -7.809682,-7.80968 h -5.55824 v 26.8062 h 4.50288 v -9.49826 h 1.12572 c 1.82929,0 3.37715,1.47751 3.37715,3.37716 v 6.1211 h 4.502882 v -5.55824 c 0,-2.53287 -1.19607,-4.57324 -3.095735,-5.83967 1.899665,-1.26644 3.095735,-3.37716 3.095735,-5.83967 v -1.75894 z m -4.502882,2.18108 c 0,1.8293 -1.47751,3.37716 -3.37716,3.37716 h -1.12572 v -9.49826 h 1.12572 c 1.8293,0 3.37716,1.47751 3.37716,3.37716 z m 31.309082,-10.06112 c -4.29181,0 -7.80968,3.51788 -7.80968,7.80968 v 18.99652 h 4.50287 v -8.9354 h 4.50288 v 8.9354 h 4.50288 v -26.8062 z m -3.37716,14.00114 v -6.68396 c 0,-1.82929 1.4775,-3.37716 3.37716,-3.37716 h 1.12572 v 10.06112 z m -11.18684,-14.00114 h -11.18684 v 3.94002 h 3.37716 v 22.93654 h 4.50288 v -22.93654 h 3.37716 v -3.94002 z m 1.12572,0 h 4.50288 v 26.8062 h -4.50288 z m -51.360962,7.31718 c 0,-1.82929 1.47751,-3.37716 3.37716,-3.37716 h 1.12572 v 22.93654 h 4.50288 v -26.8062 h -5.55824 c -2.18108,0 -4.22145,1.19608 -5.55824,2.88466 -1.40715,-1.75894 -3.37716,-2.88466 -5.55824,-2.88466 h -5.55824 v 26.8062 h 4.50287 v -22.93654 h 1.12572 c 1.8293,0 3.37716,1.47751 3.37716,3.37716 v 19.55938 h 4.50288 v -19.55938 z m 80.418602,19.55938 h 4.50287 v -26.8062 h -4.50287 v 3.09573 c -1.68858,-1.97001 -4.01038,-3.09573 -6.68397,-3.09573 h -2.25143 v 26.8062 h 4.50287 v -21.95153 c 2.3218,0.985 4.50288,3.65858 4.50288,6.33217 v 15.61936 z M 0.76784833,121.69245 v 18.99652 c 0,4.29181 3.51786997,7.80968 7.80967977,7.80968 h 4.5028799 v -3.94002 H 8.5775281 c -1.8292898,0 -3.3771598,-1.47751 -3.3771598,-3.37716 v -6.68396 h 6.6839597 v -3.94002 H 5.2003683 v -4.99538 h 7.8096797 v -3.94002 H 0.76784833 Z M 163.99719,130.69821 v -2.25144 c 0,-4.99538 -2.39215,-7.24682 -6.68396,-7.24682 -4.29181,0 -6.68396,2.95501 -6.68396,7.24682 0,8.37254 8.9354,8.4429 8.9354,13.43828 v 0.56286 c 0,1.68858 -0.56286,2.8143 -2.25144,2.8143 -1.68858,0 -2.25144,-1.12572 -2.25144,-2.8143 v -2.8143 h -4.50288 v 2.25144 c 0,5.06574 2.39216,7.24682 6.68396,7.24682 4.29181,0 6.68396,-2.95502 6.68396,-7.24682 0,-8.30218 -8.9354,-8.37254 -8.9354,-13.43828 v -0.56286 c 0,-1.68858 0.56286,-2.8143 2.25144,-2.8143 1.68858,0 2.25144,1.12572 2.25144,2.8143 v 2.8143 z" sodipodi:nodetypes="cccccccccccccssccssccccssscccccccscssccccsccccssccscsccssccssssscccccccscsscccccccccccccccccccsccccscsccccsscccccccccsccccscccssccssccccccccccsssssssccssssssscc" style="stroke-width:0.703575"></path></g>
<circle id="SvgjsCircle1025" style="fill:#f2f2f2;stroke:#000000" cx="207.4234" cy="95.187454" r="0.076631948"></circle></svg><style>@media (prefers-color-scheme: light) { :root { filter: none; } }
@media (prefers-color-scheme: dark) { :root { filter: none; } }
</style></svg>