<svg xmlns="http://www.w3.org/2000/svg" xml:space="preserve" id="Layer_1" width="165" height="149" x="0" y="0" version="1.1"><style id="style234" type="text/css">.st0{fill:#e2cbb5}.st1{fill:#bf6c35}.st2{fill:#fff}.st3{fill:#9fa628}.st4{fill:#663f4c}</style><g id="g452"><path id="XMLID_2_" d="m162.39 106.5-6.707-6.707V96.44c0-7.546-5.869-13.694-13.275-14.253v-4.612h3.354a14.372 14.372 0 0 0 14.393-14.393V48.79a2.207 2.207 0 0 0-2.236-2.236 2.207 2.207 0 0 0-2.236 2.236 2.207 2.207 0 0 0-2.236-2.236 2.207 2.207 0 0 0-2.235 2.236 2.207 2.207 0 0 0-2.236-2.236 2.207 2.207 0 0 0-2.236 2.236v12.157c0 1.956-1.397 3.353-3.354 3.353h-1.118V48.79h-27.807c-3.074 0-5.59-2.376-5.59-5.59 0-3.074 2.376-5.59 5.59-5.59h27.807v-2.235c2.376 0 4.472-1.956 4.472-4.472 0-2.375-1.956-4.471-4.472-4.471v-7.825c0-7.826-4.331-12.158-12.157-12.158h-13.275c-7.825 0-12.157 4.472-12.157 12.158v7.825c-2.375 0-4.471 1.956-4.471 4.471 0 2.376 1.956 4.472 4.471 4.472V64.3h-1.118c-1.956 0-3.353-1.397-3.353-3.353V48.79a2.207 2.207 0 0 0-2.236-2.236 2.207 2.207 0 0 0-2.236 2.236 2.207 2.207 0 0 0-2.236-2.236 2.207 2.207 0 0 0-2.235 2.236 2.207 2.207 0 0 0-2.236-2.236 2.207 2.207 0 0 0-2.236 2.236v14.392a14.372 14.372 0 0 0 14.393 14.393h3.354v9.922c0 1.956-1.398 3.353-3.354 3.353H93.36v19.983l6.707-6.708h3.354c6.008 0 11.039-3.633 13.275-8.943h22.218c1.956 0 3.353 1.398 3.353 3.354v7.825h20.122z" class="st0" style="stroke-width:1.39737"/><path id="XMLID_3_" d="M130.251 6.59h-13.415c-7.825 0-12.157 4.47-12.157 12.156v1.118l2.236-2.236 3.354 3.354 3.353-3.354 3.354 3.354 3.354-3.354 3.353 3.354 3.354-3.354 3.354 3.354 3.353-3.354 3.354 3.354 3.354-3.354 2.236 2.236v-1.118c-.28-7.685-4.612-12.157-12.437-12.157Z" class="st1" style="stroke-width:1.39737"/><circle id="XMLID_4_" cx="116.836" cy="28.807" r="4.472" class="st2" style="stroke-width:1.39737"/><circle id="XMLID_5_" cx="130.251" cy="28.807" r="4.472" class="st2" style="stroke-width:1.39737"/><circle id="XMLID_6_" cx="116.836" cy="28.807" r="2.236" class="st3" style="stroke-width:1.39737"/><circle id="XMLID_7_" cx="130.251" cy="28.807" r="2.236" class="st3" style="stroke-width:1.39737"/><path id="XMLID_8_" d="M116.836 34.257c-2.934 0-5.45-2.376-5.45-5.45 0-3.074 2.376-5.45 5.45-5.45 2.935 0 5.45 2.376 5.45 5.45 0 3.074-2.375 5.45-5.45 5.45zm0-8.943a3.46 3.46 0 0 0-3.493 3.493 3.46 3.46 0 0 0 3.493 3.494 3.46 3.46 0 0 0 3.494-3.494 3.46 3.46 0 0 0-3.494-3.493zm13.415 8.943c-2.934 0-5.45-2.376-5.45-5.45 0-3.074 2.376-5.45 5.45-5.45 2.935 0 5.45 2.376 5.45 5.45 0 3.074-2.515 5.45-5.45 5.45zm0-8.943a3.46 3.46 0 0 0-3.493 3.493 3.46 3.46 0 0 0 3.493 3.494 3.46 3.46 0 0 0 3.493-3.494c0-1.956-1.676-3.493-3.493-3.493zm34.794 82.305-8.244-8.245V96.44c0-7.825-5.73-14.253-13.275-15.371v-2.376h2.236c8.524 0 15.51-6.987 15.51-15.51V48.79c0-1.957-1.397-3.354-3.353-3.354-.839 0-1.677.28-2.236.838-.559-.559-1.397-.838-2.236-.838-.838 0-1.677.28-2.235.838-.56-.559-1.398-.838-2.236-.838-1.957 0-3.354 1.397-3.354 3.354v12.157a2.207 2.207 0 0 1-2.236 2.235v-15.51h-5.59v-.56c0-.838-.838-1.676-1.676-1.676s-1.677.838-1.677 1.677v.559h-3.354v-.56c0-.838-.838-1.676-1.676-1.676-.839 0-1.677.838-1.677 1.677v.559h-3.354v-.56c0-.838-.838-1.676-1.677-1.676-.838 0-1.677.838-1.677 1.677v.559h-3.353v-.56c0-.838-.839-1.676-1.677-1.676-.839 0-1.677.838-1.677 1.677v.559c-2.375 0-4.472-1.957-4.472-4.472 0-2.375 1.957-4.471 4.472-4.471h3.354v.559c0 .838.838 1.676 1.677 1.676.838 0 1.676-.838 1.676-1.676v-.56h3.354v.56c0 .838.839 1.676 1.677 1.676.838 0 1.677-.838 1.677-1.676v-.56h3.353v.56c0 .838.839 1.676 1.677 1.676.839 0 1.677-.838 1.677-1.676v-.56h3.354v.56c0 .838.838 1.676 1.677 1.676.838 0 1.676-.838 1.676-1.676v-.56h2.236v-2.375c2.516-.559 4.472-2.795 4.472-5.45 0-2.655-1.956-4.89-4.472-5.45v-6.707c0-8.384-4.89-13.275-13.275-13.275h-13.275c-8.384 0-13.275 4.891-13.275 13.275v6.708c-2.515.559-4.471 2.794-4.471 5.45 0 2.654 1.956 4.89 4.471 5.45v26.689a2.207 2.207 0 0 1-2.235-2.236V48.65c0-1.956-1.398-3.354-3.354-3.354-.839 0-1.677.28-2.236.839-.559-.56-1.397-.839-2.236-.839-.838 0-1.677.28-2.235.839-.56-.56-1.398-.839-2.236-.839-1.957 0-3.354 1.398-3.354 3.354v14.393c0 8.524 6.987 15.51 15.51 15.51h2.237v8.944a2.207 2.207 0 0 1-2.236 2.235h-8.943v23.756l8.244-8.245h2.935a15.387 15.387 0 0 0 13.973-8.943h21.52c1.257 0 2.235.978 2.235 2.236v8.943h23.895zm-21.519-42.2c2.376 0 4.472-1.957 4.472-4.472V48.79c0-.7.419-1.118 1.117-1.118.7 0 1.118.419 1.118 1.118 0 .698.42 1.118 1.118 1.118.699 0 1.118-.42 1.118-1.118 0-.7.42-1.118 1.118-1.118.699 0 1.118.419 1.118 1.118 0 .698.42 1.118 1.118 1.118.699 0 1.118-.42 1.118-1.118 0-.7.419-1.118 1.118-1.118.698 0 1.118.419 1.118 1.118v14.392c0 7.267-6.01 13.275-13.275 13.275h-2.236V65.418Zm0-37.59c1.397.42 2.236 1.677 2.236 3.074 0 1.398-.839 2.655-2.236 3.075zm-42.2 3.214c0-1.397.838-2.655 2.235-3.074v6.288c-1.397-.559-2.235-1.817-2.235-3.214zm37.728 63.3h-22.916l-.28.7c-2.096 5.03-6.847 8.244-12.297 8.244h-3.773l-5.17 5.17v-16.21h6.708c2.375 0 4.471-1.956 4.471-4.47v-11.04h-4.471c-7.267 0-13.275-6.009-13.275-13.275V49.069c0-.699.419-1.118 1.117-1.118.7 0 1.118.42 1.118 1.118 0 .699.42 1.118 1.118 1.118.699 0 1.118-.42 1.118-1.118 0-.699.42-1.118 1.118-1.118.699 0 1.118.42 1.118 1.118 0 .699.42 1.118 1.118 1.118.699 0 1.118-.42 1.118-1.118 0-.699.419-1.118 1.118-1.118.698 0 1.118.42 1.118 1.118v12.157c0 2.376 1.956 4.472 4.471 4.472h2.236V19.026c0-7.127 4.052-11.04 11.04-11.04h13.274c7.127 0 11.04 4.053 11.04 11.04v17.746H114.6c-3.634 0-6.708 2.935-6.708 6.708 0 3.633 2.935 6.707 6.708 6.707h26.69v33.257l.977.14c6.847.559 12.297 6.288 12.297 13.275v3.773l5.17 5.17h-16.07v-6.707c-.139-2.795-2.095-4.751-4.61-4.751z" class="st4" style="stroke-width:1.39737"/><path id="XMLID_18_" d="M22.733 48.79c-3.075 0-5.59-2.376-5.59-5.59 0-3.074 2.376-5.59 5.59-5.59H50.54V18.747c0-7.825-4.332-12.157-12.157-12.157H25.108c-7.825 0-12.157 4.472-12.157 12.157v68.75c0 1.957-1.397 3.354-3.354 3.354H1.772v19.983l6.707-6.708h3.354c6.009 0 11.04-3.633 13.275-8.943h22.218c1.957 0 3.354 1.398 3.354 3.354v7.825h19.982l-6.707-6.707V96.44c0-7.546-5.87-13.694-13.275-14.253V79.81h26.69l-5.59-4.471 6.707-2.236-6.707-2.236 5.59-4.472H50.68v-4.471h26.69l-5.59-4.472 6.707-2.236-6.707-2.235 5.59-4.472H22.733z" class="st3" style="stroke-width:1.39737"/><circle id="XMLID_19_" cx="24.968" cy="28.807" r="4.472" class="st2" style="stroke-width:1.39737"/><circle id="XMLID_20_" cx="38.243" cy="28.807" r="4.472" class="st2" style="stroke-width:1.39737"/><circle id="XMLID_21_" cx="24.968" cy="28.807" r="2.236" class="st1" style="stroke-width:1.39737"/><circle id="XMLID_22_" cx="38.243" cy="28.807" r="2.236" class="st1" style="stroke-width:1.39737"/><path id="XMLID_23_" d="M12.672 83.165v-11.04l-9.922 5.59zm0-11.04V61.087l-9.922 5.59zm0-11.178v-11.04l-9.922 5.59ZM2.75 44.318l9.922 5.59v-11.04Z" class="st0" style="stroke-width:1.39737"/><path id="XMLID_28_" d="M50.4 47.672 48.165 43.2l-2.236 4.472h-2.236L41.457 43.2l-2.236 4.472h-2.235L34.75 43.2l-2.236 4.472h-2.096L28.182 43.2l-2.235 4.472H23.71L21.475 43.2l-1.677 3.494c-.978-.839-1.677-2.096-1.677-3.494 0-2.096 1.398-3.912 3.494-4.332L23.71 43.2l2.236-4.471h2.235l2.236 4.471 2.236-4.471h2.236l2.235 4.471 2.236-4.471h2.236l2.236 4.471 2.236-4.471h5.589V18.746c0-3.773-.978-6.707-2.795-8.943l2.935-2.934c.978.419 1.956.838 3.214.838.698 0 1.118-.42 1.118-1.118 0-.699-.42-1.118-1.118-1.118-2.096 0-3.354-1.257-3.354-3.353 0-.7-.42-1.118-1.118-1.118-.699 0-1.118.419-1.118 1.118 0 1.257.28 2.235.839 3.074l-2.935 2.934c-2.375-1.677-5.31-2.655-9.083-2.655H24.968c-3.773 0-6.707.978-8.943 2.795l-2.934-2.934c.419-.979.838-1.957.838-3.214 0-.7-.419-1.118-1.118-1.118-.698 0-1.118.419-1.118 1.118 0 2.096-1.257 3.353-3.353 3.353-.699 0-1.118.42-1.118 1.118 0 .699.419 1.118 1.118 1.118 1.257 0 2.235-.28 3.074-.838l2.934 2.934c-1.816 2.236-2.794 5.17-2.794 8.943V38.03L.514 44.318l9.922 5.59-9.922 5.589 9.922 5.59-9.922 5.589 9.922 5.59-9.922 5.589 11.18 6.148v3.773a2.207 2.207 0 0 1-2.236 2.236H.514v23.755l8.245-8.244h2.934a15.387 15.387 0 0 0 13.974-8.943h21.52c1.257 0 2.235.978 2.235 2.235v8.943h23.755l-8.244-8.244V96.44c0-7.825-5.73-14.253-13.275-15.371v-.28h28.786l-6.428-5.17 7.825-2.655-7.825-2.655 6.428-5.17H51.658v-2.236h28.786l-6.428-5.17 7.825-2.655-7.825-2.655 6.428-5.17H50.4zm1.118 2.236h22.358l-4.611 3.772 5.45 1.817-5.45 1.817 4.611 3.772H51.518zm-39.964-9.223v7.266l-6.568-3.633Zm0 11.04v7.265l-6.568-3.633Zm0 11.178v7.266l-6.568-3.633ZM4.986 77.575l6.568-3.633v7.266zm8.803-58.829c0-7.126 4.053-11.039 11.04-11.039h13.275c7.126 0 11.039 4.052 11.039 11.04v17.746h-26.41c-3.634 0-6.708 2.934-6.708 6.707 0 3.633 2.935 6.707 6.708 6.707h26.69v17.747h24.593l-4.611 3.773 5.45 1.817-5.45 1.816 4.61 3.773H49.423v4.472l.978.14c6.848.418 12.297 6.287 12.297 13.274v3.773l5.17 5.17H51.658v-6.707c0-2.375-1.956-4.472-4.472-4.472H24.13l-.28.7c-1.956 5.03-6.707 8.244-12.157 8.244H7.92l-5.17 5.17v-16.21h6.708c2.375 0 4.471-1.956 4.471-4.471v-69.17Zm11.18 15.511c2.934 0 5.45-2.376 5.45-5.45 0-3.074-2.376-5.45-5.45-5.45-2.935 0-5.45 2.376-5.45 5.45 0 3.074 2.375 5.45 5.45 5.45zm0-8.943a3.46 3.46 0 0 1 3.493 3.493 3.46 3.46 0 0 1-3.494 3.494 3.46 3.46 0 0 1-3.493-3.494 3.46 3.46 0 0 1 3.493-3.493zm13.274 8.943c2.935 0 5.45-2.376 5.45-5.45 0-3.074-2.375-5.45-5.45-5.45-2.934 0-5.45 2.376-5.45 5.45 0 3.074 2.376 5.45 5.45 5.45zm0-8.943a3.46 3.46 0 0 1 3.494 3.493 3.46 3.46 0 0 1-3.494 3.494 3.46 3.46 0 0 1-3.493-3.494 3.46 3.46 0 0 1 3.493-3.493z" class="st4" style="stroke-width:1.39737"/><path id="XMLID_40_" d="M28.7 121.692h4.503V148.5H28.7zm16.815 26.877v-3.94h-6.684v-22.937h-4.503V148.5h11.187zm-25.75 0c4.291 0 7.809-3.518 7.809-7.81v-18.996h-4.503v19.56a3.378 3.378 0 0 1-3.377 3.376h-1.126v-22.936h-4.503v26.806zm62.618-26.877c-4.292 0-7.81 3.518-7.81 7.81V148.5h4.503V139h4.503v9.499h4.502v-26.807zm-3.378 13.439v-6.121a3.378 3.378 0 0 1 3.378-3.378h1.125v9.499zm23.5-5.559c0-4.291-3.518-7.81-7.81-7.81h-5.558v26.807h4.503v-9.498h1.125a3.378 3.378 0 0 1 3.378 3.377v6.121h4.502v-5.558c0-2.533-1.196-4.573-3.095-5.84 1.9-1.266 3.095-3.377 3.095-5.84v-1.759zm-4.503 2.182a3.378 3.378 0 0 1-3.377 3.377h-1.126v-9.499h1.126a3.378 3.378 0 0 1 3.377 3.378zm31.309-10.062c-4.292 0-7.81 3.518-7.81 7.81V148.5h4.503v-8.936h4.503v8.936h4.503v-26.807zm-3.377 14.002v-6.684a3.378 3.378 0 0 1 3.377-3.378h1.126v10.062zm-11.187-14.002H103.56v3.94h3.377v22.937h4.503v-22.937h3.377v-3.94zm1.126 0h4.503V148.5h-4.503zm-51.361 7.318a3.378 3.378 0 0 1 3.377-3.378h1.126v22.937h4.502v-26.806H67.96c-2.18 0-4.221 1.196-5.558 2.884-1.407-1.758-3.377-2.884-5.558-2.884h-5.558v26.806h4.502v-22.937h1.126a3.378 3.378 0 0 1 3.377 3.378v19.559h4.503v-19.56zm80.418 19.559h4.503v-26.806h-4.503v3.096c-1.688-1.97-4.01-3.096-6.684-3.096h-2.251v26.806h4.503v-21.952c2.322.985 4.503 3.66 4.503 6.333v15.619zM.768 121.692v18.997c0 4.292 3.518 7.81 7.81 7.81h4.502v-3.94H8.578A3.378 3.378 0 0 1 5.2 141.18v-6.683h6.684v-3.94H5.2v-4.996h7.81v-3.94H.768Zm163.23 9.006v-2.251c0-4.996-2.393-7.247-6.685-7.247s-6.684 2.955-6.684 7.247c0 8.372 8.936 8.443 8.936 13.438v.563c0 1.688-.563 2.814-2.252 2.814-1.688 0-2.251-1.126-2.251-2.814v-2.814h-4.503v2.251c0 5.066 2.392 7.247 6.684 7.247s6.684-2.955 6.684-7.247c0-8.302-8.936-8.372-8.936-13.438v-.563c0-1.689.563-2.814 2.252-2.814 1.688 0 2.251 1.125 2.251 2.814v2.814z" style="stroke-width:.703575;fill:#583345"/></g><circle id="path503" cx="207.423" cy="95.187" r=".077" style="fill:#f2f2f2;stroke:#000"/></svg>